<?xml version="1.0" ?><svg enable-background="new 0 0 32 32" version="1.1" viewBox="0 0 32 32" xml:space="preserve" xmlns="http://www.w3.org/2000/svg" xmlns:xlink="http://www.w3.org/1999/xlink"><g id="OC_2"><g><path d="M4,31.5c-1.93,0-3.5-1.57-3.5-3.5V4c0-1.93,1.57-3.5,3.5-3.5h24c1.93,0,3.5,1.57,3.5,3.5v24c0,1.93-1.57,3.5-3.5,3.5H4z"/><path d="M28,1c1.654,0,3,1.346,3,3v24c0,1.654-1.346,3-3,3H4c-1.654,0-3-1.346-3-3V4c0-1.654,1.346-3,3-3H28 M28,0    H4C1.8,0,0,1.8,0,4v24c0,2.2,1.8,4,4,4h24c2.2,0,4-1.8,4-4V4C32,1.8,30.2,0,28,0L28,0z" fill="#FFD835"/></g><path d="M13.597,25.261h3.827v-9.262h2.553l0.338-3.191h-2.891l0.004-1.598c0-0.832,0.079-1.278,1.273-1.278h1.596   V6.739h-2.554c-3.067,0-4.146,1.549-4.146,4.152v1.916h-1.912v3.192h1.912V25.261z" fill="#FFFFFF"/></g></svg>