<?xml version="1.0" ?><svg enable-background="new 0 0 32 32" version="1.1" viewBox="0 0 32 32" xml:space="preserve" xmlns="http://www.w3.org/2000/svg" xmlns:xlink="http://www.w3.org/1999/xlink"><g id="OC_2"><g><path d="M4,31.5c-1.93,0-3.5-1.57-3.5-3.5V4c0-1.93,1.57-3.5,3.5-3.5h24c1.93,0,3.5,1.57,3.5,3.5v24c0,1.93-1.57,3.5-3.5,3.5H4z"/><g><path d="M28,1c1.654,0,3,1.346,3,3v24c0,1.654-1.346,3-3,3H4c-1.654,0-3-1.346-3-3V4c0-1.654,1.346-3,3-3H28      M28,0H4C1.8,0,0,1.8,0,4v24c0,2.2,1.8,4,4,4h24c2.2,0,4-1.8,4-4V4C32,1.8,30.2,0,28,0L28,0z" fill="#FFD835"/></g></g><path d="M15.235,16.531c-0.486-0.45-1.026-1.081-1.26-1.639c-0.036-0.072-0.108-0.252,0-0.396   c0.216-0.288,0.252-0.306,0.486-0.576c0.162-0.198,0.288-0.378,0.234-0.54l-0.81-2.107c-0.072-0.144-0.288-0.162-0.54-0.18   c-0.216,0-0.45,0-0.612,0.036c-0.36,0.126-1.098,1.099-1.188,1.801c-0.198,1.531,1.188,3.566,2.574,4.827   c1.386,1.279,3.529,2.486,5.041,2.143c0.702-0.162,1.603-0.972,1.674-1.351c0.036-0.162,0.018-0.396-0.018-0.612   c-0.018-0.252-0.072-0.432-0.216-0.504l-1.836-0.847c-0.162-0.09-0.324-0.018-0.486,0.181c-0.198,0.27-0.288,0.378-0.522,0.666   c-0.126,0.162-0.216,0.27-0.36,0.288c-0.162,0.036-0.378-0.054-0.414-0.054C16.405,17.468,15.739,16.982,15.235,16.531   L15.235,16.531z M9.186,22.997l1.044-2.648c-1.152-1.333-1.854-3.08-1.854-4.989c0-4.214,3.42-7.619,7.633-7.619   c4.212,0,7.615,3.404,7.615,7.619c0,4.215-3.402,7.637-7.615,7.637c-1.692,0-3.241-0.54-4.501-1.477L9.186,22.997z M7.908,20.404   l-1.44,5.764l5.148-2.342c1.314,0.684,2.808,1.081,4.393,1.081c5.256,0,9.523-4.269,9.523-9.546c0-5.259-4.267-9.528-9.523-9.528   c-5.275,0-9.541,4.269-9.541,9.528C6.468,17.215,7.008,18.945,7.908,20.404L7.908,20.404z" fill="#FFFFFF"/></g></svg>